<?xml version="1.0" encoding="UTF-8"?>
<svg width="309px" height="296px" viewBox="0 0 309 296" version="1.1" xmlns="http://www.w3.org/2000/svg" xmlns:xlink="http://www.w3.org/1999/xlink">
    <defs>
        <path d="M4.39355469,70 L4.39355469,4.9609375 L13.0507812,4.9609375 L13.0507812,36.953125 L39.3740234,4.9609375 L48.6464844,4.9609375 L23.1582031,35.9863281 L53.1728516,70 L41.4833984,70 L13.0507812,37.0410156 L13.0507812,70 L4.39355469,70 Z M98.3925781,68.4619141 C92.5917679,70.2197354 87.6259972,71.0986328 83.4951172,71.0986328 C76.463832,71.0986328 70.7290261,68.7622304 66.2905273,64.0893555 C61.8520286,59.4164805 59.6328125,53.3594122 59.6328125,45.9179688 C59.6328125,38.6816044 61.5883594,32.7490466 65.4995117,28.1201172 C69.4106641,23.4911878 74.4130555,21.1767578 80.5068359,21.1767578 C86.2783492,21.1767578 90.7387538,23.2275186 93.8881836,27.3291016 C97.0376134,31.4306846 98.6123047,37.2607044 98.6123047,44.8193359 L98.5683594,47.5 L68.4658203,47.5 C69.7255922,58.8379473 75.2772945,64.5068359 85.1210938,64.5068359 C88.7246274,64.5068359 93.1484113,63.5400487 98.3925781,61.6064453 L98.3925781,68.4619141 Z M68.8613281,40.9960938 L89.9111328,40.9960938 C89.9111328,32.1190962 86.600619,27.6806641 79.9794922,27.6806641 C73.3290683,27.6806641 69.6230507,32.1190962 68.8613281,40.9960938 Z M148.53418,68.4619141 C142.733369,70.2197354 137.767599,71.0986328 133.636719,71.0986328 C126.605434,71.0986328 120.870628,68.7622304 116.432129,64.0893555 C111.99363,59.4164805 109.774414,53.3594122 109.774414,45.9179688 C109.774414,38.6816044 111.729961,32.7490466 115.641113,28.1201172 C119.552266,23.4911878 124.554657,21.1767578 130.648438,21.1767578 C136.419951,21.1767578 140.880355,23.2275186 144.029785,27.3291016 C147.179215,31.4306846 148.753906,37.2607044 148.753906,44.8193359 L148.709961,47.5 L118.607422,47.5 C119.867194,58.8379473 125.418896,64.5068359 135.262695,64.5068359 C138.866229,64.5068359 143.290013,63.5400487 148.53418,61.6064453 L148.53418,68.4619141 Z M119.00293,40.9960938 L140.052734,40.9960938 C140.052734,32.1190962 136.742221,27.6806641 130.121094,27.6806641 C123.47067,27.6806641 119.764652,32.1190962 119.00293,40.9960938 Z M163.695312,87.3583984 L163.695312,22.2753906 L172.352539,22.2753906 L172.352539,31.2402344 C175.897479,24.5605135 181.214808,21.2207031 188.304688,21.2207031 C194.046904,21.2207031 198.565901,23.3154087 201.861816,27.5048828 C205.157731,31.6943569 206.805664,37.4218387 206.805664,44.6875 C206.805664,52.5976958 204.938007,58.9770265 201.202637,63.8256836 C197.467266,68.6743406 192.552765,71.0986328 186.458984,71.0986328 C180.804659,71.0986328 176.102558,68.9306857 172.352539,64.5947266 L172.352539,87.3583984 L163.695312,87.3583984 Z M172.352539,58.6181641 C176.805686,62.602559 181.053691,64.5947266 185.09668,64.5947266 C193.417034,64.5947266 197.577148,58.2520166 197.577148,45.5664062 C197.577148,34.374944 193.885779,28.7792969 186.50293,28.7792969 C181.668921,28.7792969 176.952171,31.401341 172.352539,36.6455078 L172.352539,58.6181641 Z M32.8701172,176 L32.8701172,110.960938 L49.7451172,110.960938 C56.249056,110.960938 61.236799,112.191394 64.7084961,114.652344 C68.1801931,117.113294 69.9160156,120.65818 69.9160156,125.287109 C69.9160156,133.168008 65.4629352,138.778304 56.5566406,142.118164 C67.1914594,145.370133 72.5087891,151.244098 72.5087891,159.740234 C72.5087891,165.013698 70.7509941,169.041978 67.2353516,171.825195 C63.719709,174.608412 58.6514003,176 52.0302734,176 L32.8701172,176 Z M42.0107422,169.100586 L43.9003906,169.100586 C50.6680026,169.100586 55.0478416,168.675785 57.0400391,167.826172 C60.8486519,166.214836 62.7529297,163.226584 62.7529297,158.861328 C62.7529297,154.994121 61.0244313,151.778821 57.5673828,149.215332 C54.1103343,146.651843 49.7890884,145.370117 44.6035156,145.370117 L42.0107422,145.370117 L42.0107422,169.100586 Z M42.0107422,139.525391 L44.9550781,139.525391 C49.8769777,139.525391 53.6928575,138.470714 56.402832,136.361328 C59.1128065,134.251943 60.4677734,131.27834 60.4677734,127.44043 C60.4677734,121.053679 55.5166511,117.860352 45.6142578,117.860352 L42.0107422,117.860352 L42.0107422,139.525391 Z M84.9013672,176 L84.9013672,128.275391 L93.5585938,128.275391 L93.5585938,137.240234 C96.9863453,130.560513 101.966764,127.220703 108.5,127.220703 C109.378911,127.220703 110.301753,127.293945 111.268555,127.44043 L111.268555,135.526367 C109.774407,135.028318 108.45606,134.779297 107.313477,134.779297 C101.834934,134.779297 97.2500185,138.031217 93.5585938,144.535156 L93.5585938,176 L84.9013672,176 Z M121.727539,176 L121.727539,128.275391 L130.384766,128.275391 L130.384766,176 L121.727539,176 Z M121.727539,119.618164 L121.727539,110.960938 L130.384766,110.960938 L130.384766,119.618164 L121.727539,119.618164 Z M162.069336,177.098633 C157.674783,177.098633 154.247083,175.83888 151.786133,173.319336 C149.325183,170.799792 148.094727,167.298851 148.094727,162.816406 L148.094727,134.779297 L142.118164,134.779297 L142.118164,128.275391 L148.094727,128.275391 L148.094727,119.618164 L156.751953,118.783203 L156.751953,128.275391 L169.232422,128.275391 L169.232422,134.779297 L156.751953,134.779297 L156.751953,161.234375 C156.751953,167.474641 159.447239,170.594727 164.837891,170.594727 C165.980474,170.594727 167.372062,170.404299 169.012695,170.023438 L169.012695,176 C166.346666,176.732426 164.032236,177.098633 162.069336,177.098633 Z M206.014648,169.935547 C200.829076,174.710961 195.834008,177.098633 191.029297,177.098633 C187.074199,177.098633 183.792982,175.860852 181.185547,173.385254 C178.578112,170.909656 177.274414,167.782245 177.274414,164.00293 C177.274414,158.78806 179.464334,154.781752 183.844238,151.983887 C188.224143,149.186021 194.500936,147.787109 202.674805,147.787109 L204.740234,147.787109 L204.740234,142.030273 C204.740234,136.493136 201.898466,133.724609 196.214844,133.724609 C191.644508,133.724609 186.708034,135.130845 181.405273,137.943359 L181.405273,130.780273 C187.235381,128.407215 192.699193,127.220703 197.796875,127.220703 C203.128933,127.220703 207.061999,128.421863 209.596191,130.824219 C212.130384,133.226575 213.397461,136.961889 213.397461,142.030273 L213.397461,163.651367 C213.397461,168.602564 214.920883,171.078125 217.967773,171.078125 C218.348635,171.078125 218.90527,171.019532 219.637695,170.902344 L220.25293,175.692383 C218.290029,176.629887 216.122082,177.098633 213.749023,177.098633 C209.706034,177.098633 207.127935,174.710961 206.014648,169.935547 Z M204.740234,165.233398 L204.740234,152.884766 L201.839844,152.796875 C197.093726,152.796875 193.255874,153.697745 190.326172,155.499512 C187.39647,157.301279 185.931641,159.666978 185.931641,162.59668 C185.931641,164.676768 186.664055,166.434563 188.128906,167.870117 C189.593757,169.305671 191.380849,170.023438 193.490234,170.023438 C197.093768,170.023438 200.843731,168.426774 204.740234,165.233398 Z M231.107422,176 L231.107422,128.275391 L239.764648,128.275391 L239.764648,176 L231.107422,176 Z M231.107422,119.618164 L231.107422,110.960938 L239.764648,110.960938 L239.764648,119.618164 L231.107422,119.618164 Z M257.123047,176 L257.123047,128.275391 L265.780273,128.275391 L265.780273,137.240234 C270.350609,130.560513 275.946256,127.220703 282.567383,127.220703 C286.698263,127.220703 289.994128,128.531725 292.455078,131.153809 C294.916028,133.775892 296.146484,137.298806 296.146484,141.722656 L296.146484,176 L287.489258,176 L287.489258,144.535156 C287.489258,140.990217 286.969243,138.463386 285.929199,136.95459 C284.889155,135.445793 283.167981,134.691406 280.765625,134.691406 C275.462864,134.691406 270.467797,138.163051 265.780273,145.106445 L265.780273,176 L257.123047,176 Z M110.213867,280.242188 C102.332968,282.498058 95.4629199,283.625977 89.6035156,283.625977 C79.261667,283.625977 71.3296175,280.68167 65.8071289,274.792969 C60.2846404,268.904267 57.5234375,260.466852 57.5234375,249.480469 C57.5234375,238.699165 60.3212611,230.313018 65.9169922,224.321777 C71.5127233,218.330536 79.3642073,215.334961 89.4716797,215.334961 C96.0928065,215.334961 102.977503,216.316396 110.125977,218.279297 L110.125977,226.804688 C101.161088,223.757797 94.2910395,222.234375 89.515625,222.234375 C82.4843398,222.234375 77.0278514,224.622046 73.1459961,229.397461 C69.2641407,234.172875 67.3232422,240.896441 67.3232422,249.568359 C67.3232422,258.152387 69.4032995,264.824683 73.5634766,269.585449 C77.7236536,274.346215 83.5536734,276.726562 91.0537109,276.726562 C94.1298982,276.726562 97.4550603,276.184576 101.029297,275.100586 L101.029297,253.918945 L110.213867,253.918945 L110.213867,280.242188 Z M126.649414,282 L126.649414,234.275391 L135.306641,234.275391 L135.306641,243.240234 C138.734392,236.560513 143.714811,233.220703 150.248047,233.220703 C151.126958,233.220703 152.0498,233.293945 153.016602,233.44043 L153.016602,241.526367 C151.522453,241.028318 150.204107,240.779297 149.061523,240.779297 C143.58298,240.779297 138.998065,244.031217 135.306641,250.535156 L135.306641,282 L126.649414,282 Z M198.456055,280.461914 C192.655244,282.219735 187.689474,283.098633 183.558594,283.098633 C176.527309,283.098633 170.792503,280.76223 166.354004,276.089355 C161.915505,271.416481 159.696289,265.359412 159.696289,257.917969 C159.696289,250.681604 161.651836,244.749047 165.562988,240.120117 C169.474141,235.491188 174.476532,233.176758 180.570312,233.176758 C186.341826,233.176758 190.80223,235.227519 193.95166,239.329102 C197.10109,243.430685 198.675781,249.260704 198.675781,256.819336 L198.631836,259.5 L168.529297,259.5 C169.789069,270.837947 175.340771,276.506836 185.18457,276.506836 C188.788104,276.506836 193.211888,275.540049 198.456055,273.606445 L198.456055,280.461914 Z M168.924805,252.996094 L189.974609,252.996094 C189.974609,244.119096 186.664096,239.680664 180.042969,239.680664 C173.392545,239.680664 169.686527,244.119096 168.924805,252.996094 Z M238.226562,275.935547 C233.04099,280.710961 228.045922,283.098633 223.241211,283.098633 C219.286113,283.098633 216.004896,281.860852 213.397461,279.385254 C210.790026,276.909656 209.486328,273.782245 209.486328,270.00293 C209.486328,264.78806 211.676248,260.781752 216.056152,257.983887 C220.436057,255.186021 226.71285,253.787109 234.886719,253.787109 L236.952148,253.787109 L236.952148,248.030273 C236.952148,242.493136 234.11038,239.724609 228.426758,239.724609 C223.856422,239.724609 218.919948,241.130845 213.617188,243.943359 L213.617188,236.780273 C219.447295,234.407215 224.911107,233.220703 230.008789,233.220703 C235.340847,233.220703 239.273913,234.421863 241.808105,236.824219 C244.342298,239.226575 245.609375,242.961889 245.609375,248.030273 L245.609375,269.651367 C245.609375,274.602564 247.132797,277.078125 250.179688,277.078125 C250.560549,277.078125 251.117184,277.019532 251.849609,276.902344 L252.464844,281.692383 C250.501943,282.629887 248.333996,283.098633 245.960938,283.098633 C241.917949,283.098633 239.339849,280.710961 238.226562,275.935547 Z M236.952148,271.233398 L236.952148,258.884766 L234.051758,258.796875 C229.30564,258.796875 225.467788,259.697745 222.538086,261.499512 C219.608384,263.301279 218.143555,265.666978 218.143555,268.59668 C218.143555,270.676768 218.875969,272.434563 220.34082,273.870117 C221.805671,275.305671 223.592763,276.023438 225.702148,276.023438 C229.305682,276.023438 233.055645,274.426774 236.952148,271.233398 Z M277.645508,283.098633 C273.250955,283.098633 269.823254,281.83888 267.362305,279.319336 C264.901355,276.799792 263.670898,273.298851 263.670898,268.816406 L263.670898,240.779297 L257.694336,240.779297 L257.694336,234.275391 L263.670898,234.275391 L263.670898,225.618164 L272.328125,224.783203 L272.328125,234.275391 L284.808594,234.275391 L284.808594,240.779297 L272.328125,240.779297 L272.328125,267.234375 C272.328125,273.474641 275.023411,276.594727 280.414062,276.594727 C281.556646,276.594727 282.948234,276.404299 284.588867,276.023438 L284.588867,282 C281.922838,282.732426 279.608408,283.098633 277.645508,283.098633 Z" id="path-1"></path>
        <filter x="-3.9%" y="-4.1%" width="110.6%" height="111.1%" filterUnits="objectBoundingBox" id="filter-2">
            <feOffset dx="4" dy="4" in="SourceAlpha" result="shadowOffsetOuter1"></feOffset>
            <feGaussianBlur stdDeviation="4.5" in="shadowOffsetOuter1" result="shadowBlurOuter1"></feGaussianBlur>
            <feColorMatrix values="0 0 0 0 1   0 0 0 0 1   0 0 0 0 1  0 0 0 0.5 0" type="matrix" in="shadowBlurOuter1"></feColorMatrix>
        </filter>
    </defs>
    <g id="Page-1" stroke="none" stroke-width="1" fill="none" fill-rule="evenodd">
        <g id="KeepBritainGreat" fill-rule="nonzero">
            <use fill="black" fill-opacity="1" filter="url(#filter-2)" xlink:href="#path-1"></use>
            <use fill="#FFFFFF" xlink:href="#path-1"></use>
        </g>
    </g>
</svg>